<!DOCTYPE svg  PUBLIC '-//W3C//DTD SVG 1.1//EN'  'http://www.w3.org/Graphics/SVG/1.1/DTD/svg11.dtd'><svg aria-hidden="true" xmlns="http://www.w3.org/2000/svg" xmlns:xlink="http://www.w3.org/1999/xlink"><symbol viewBox="0 0 32 32" id="c-mail" xmlns="http://www.w3.org/2000/svg"><title/><g data-name="mail email e-mail letter" id="amail_email_e-mail_letter"><path d="M28,13a1,1,0,0,0-1,1v8a1,1,0,0,1-1,1H6a1,1,0,0,1-1-1V14a1,1,0,0,0-2,0v8a3,3,0,0,0,.88,2.12A3,3,0,0,0,6,25H26a3,3,0,0,0,2.12-.88A3,3,0,0,0,29,22V14A1,1,0,0,0,28,13Z"/><path d="M15.4,18.8a1,1,0,0,0,1.2,0L28.41,9.94a1,1,0,0,0,.3-1.23,3.06,3.06,0,0,0-.59-.83A3,3,0,0,0,26,7H6a3,3,0,0,0-2.12.88,3.06,3.06,0,0,0-.59.83,1,1,0,0,0,.3,1.23ZM6,9H26a.9.9,0,0,1,.28,0L16,16.75,5.72,9A.9.9,0,0,1,6,9Z"/></g></symbol><symbol viewBox="0 0 48 48" id="c-phone" xmlns="http://www.w3.org/2000/svg"><path d="M31 2h-16c-2.76 0-5 2.24-5 5v34c0 2.76 2.24 5 5 5h16c2.76 0 5-2.24 5-5v-34c0-2.76-2.24-5-5-5zm-8 42c-1.66 0-3-1.34-3-3s1.34-3 3-3 3 1.34 3 3-1.34 3-3 3zm9-8h-18v-28h18v28z"/><path d="M0 0h48v48h-48z"/></symbol><symbol viewBox="0 0 24 24" xml:space="preserve" id="c-skype" xmlns="http://www.w3.org/2000/svg"><g id="cLayer_1"><g><path d="M8.865,5c0.751,0,1.44,0.202,2.069,0.609c0.324-0.08,0.711-0.121,1.157-0.121c1.846,0,3.418,0.67,4.717,2.008    c1.299,1.339,1.948,2.962,1.948,4.87c0,0.466-0.051,0.953-0.152,1.461C18.868,14.416,19,15.014,19,15.621    c0,1.097-0.38,2.036-1.142,2.815c-0.761,0.781-1.668,1.173-2.725,1.173c-0.629,0-1.237-0.162-1.825-0.488    c-0.527,0.081-0.933,0.122-1.217,0.122c-1.847,0-3.425-0.67-4.733-2.009s-1.963-2.962-1.963-4.868c0-0.447,0.051-0.902,0.152-1.37    C5.183,10.387,5,9.708,5,8.957c0-1.096,0.376-2.029,1.126-2.799C6.876,5.386,7.79,5,8.865,5 M12,15.53    c-0.406,0-0.729-0.061-0.975-0.183c-0.263-0.142-0.445-0.284-0.547-0.425c-0.243-0.447-0.376-0.681-0.396-0.7    c-0.081-0.243-0.202-0.447-0.364-0.609C9.515,13.473,9.312,13.4,9.108,13.4c-0.284,0-0.517,0.091-0.7,0.274    c-0.183,0.182-0.274,0.396-0.274,0.639c0,0.386,0.144,0.801,0.428,1.248c0.263,0.405,0.629,0.741,1.096,1.003    c0.648,0.346,1.45,0.519,2.404,0.519c0.79,0,1.49-0.122,2.1-0.365c0.609-0.284,1.055-0.639,1.339-1.065    c0.304-0.467,0.456-0.975,0.456-1.522c0-0.445-0.08-0.852-0.242-1.217c-0.163-0.304-0.416-0.578-0.762-0.82    c-0.365-0.225-0.75-0.407-1.156-0.548c-0.689-0.204-1.178-0.336-1.461-0.396c-0.143-0.021-0.32-0.055-0.533-0.107    c-0.213-0.05-0.35-0.085-0.41-0.106c-0.243-0.08-0.416-0.152-0.518-0.212c-0.163-0.081-0.294-0.193-0.396-0.336    c-0.103-0.1-0.152-0.233-0.152-0.396c0-0.243,0.142-0.455,0.426-0.639c0.265-0.203,0.649-0.305,1.156-0.305    c0.508,0,0.884,0.092,1.127,0.273c0.263,0.225,0.456,0.478,0.577,0.762c0.163,0.264,0.295,0.446,0.396,0.547    c0.162,0.123,0.355,0.184,0.578,0.184c0.264,0,0.498-0.102,0.699-0.306c0.184-0.181,0.275-0.404,0.275-0.669    c0-0.202-0.072-0.467-0.214-0.791c-0.162-0.243-0.376-0.486-0.639-0.729c-0.284-0.224-0.659-0.417-1.127-0.579    c-0.485-0.143-1.004-0.213-1.552-0.213c-0.73,0-1.38,0.11-1.948,0.335C9.515,8.063,9.078,8.368,8.774,8.774    c-0.305,0.406-0.457,0.872-0.457,1.4c0,0.527,0.143,0.984,0.426,1.37c0.346,0.405,0.73,0.688,1.156,0.851    c0.488,0.224,1.076,0.407,1.766,0.548c0.121,0.021,0.27,0.056,0.441,0.106c0.172,0.052,0.324,0.092,0.457,0.123    c0.131,0.028,0.238,0.055,0.319,0.075c0.284,0.103,0.517,0.243,0.699,0.427c0.183,0.141,0.274,0.354,0.274,0.639    c0,0.346-0.162,0.629-0.486,0.853C13.005,15.409,12.548,15.53,12,15.53 M8.865,3C7.256,3,5.812,3.61,4.691,4.765    C3.586,5.899,3,7.35,3,8.957c0,0.832,0.156,1.619,0.466,2.348c-0.047,0.357-0.07,0.713-0.07,1.062    c0,2.438,0.853,4.547,2.532,6.267c1.693,1.732,3.768,2.61,6.164,2.61c0.254,0,0.547-0.02,0.896-0.06    c0.69,0.283,1.409,0.426,2.146,0.426c1.588,0,3.025-0.614,4.157-1.777c1.117-1.143,1.709-2.6,1.709-4.211    c0-0.677-0.111-1.349-0.332-2.004c0.059-0.427,0.089-0.846,0.089-1.251c0-2.437-0.846-4.544-2.513-6.263    c-1.685-1.735-3.755-2.615-6.152-2.615c-0.279,0-0.546,0.013-0.801,0.038C10.535,3.177,9.723,3,8.865,3z"/></g></g></symbol><symbol viewBox="0 0 448 512" id="c-telegram" xmlns="http://www.w3.org/2000/svg"><path d="M446.7 98.6l-67.6 318.8c-5.1 22.5-18.4 28.1-37.3 17.5l-103-75.9-49.7 47.8c-5.5 5.5-10.1 10.1-20.7 10.1l7.4-104.9 190.9-172.5c8.3-7.4-1.8-11.5-12.9-4.1L117.8 284 16.2 252.2c-22.1-6.9-22.5-22.1 4.6-32.7L418.2 66.4c18.4-6.9 34.5 4.1 28.5 32.2z"/></symbol><symbol viewBox="0 0 24 24" id="c-viber" xmlns="http://www.w3.org/2000/svg"><title/><path d="M11.398.002C9.473.028 5.331.344 3.014 2.467 1.294 4.177.693 6.698.623 9.82c-.06 3.11-.13 8.95 5.5 10.541v2.42s-.038.97.602 1.17c.79.25 1.24-.499 1.99-1.299l1.4-1.58c3.85.32 6.8-.419 7.14-.529.78-.25 5.181-.811 5.901-6.652.74-6.031-.36-9.831-2.34-11.551l-.01-.002c-.6-.55-3-2.3-8.37-2.32 0 0-.396-.025-1.038-.016zm.067 1.697c.545-.003.88.02.88.02 4.54.01 6.711 1.38 7.221 1.84 1.67 1.429 2.528 4.856 1.9 9.892-.6 4.88-4.17 5.19-4.83 5.4-.28.09-2.88.73-6.152.52 0 0-2.439 2.941-3.199 3.701-.12.13-.26.17-.35.15-.13-.03-.17-.19-.16-.41l.02-4.019c-4.771-1.32-4.491-6.302-4.441-8.902.06-2.6.55-4.732 2-6.172 1.957-1.77 5.475-2.01 7.11-2.02zm.36 2.6a.299.299 0 0 0-.3.299.3.3 0 0 0 .3.3 5.631 5.631 0 0 1 4.03 1.59c1.09 1.06 1.621 2.48 1.641 4.34a.3.3 0 0 0 .3.3v-.009a.3.3 0 0 0 .3-.3 6.451 6.451 0 0 0-1.81-4.76c-1.19-1.16-2.692-1.76-4.462-1.76zm-3.954.69a.955.955 0 0 0-.615.12h-.012c-.41.24-.788.54-1.148.94-.27.32-.421.639-.461.949a1.24 1.24 0 0 0 .05.541l.02.01a13.722 13.722 0 0 0 1.2 2.6 15.383 15.383 0 0 0 2.32 3.171l.03.04.04.03.03.03.03.03a15.603 15.603 0 0 0 3.18 2.33c1.32.72 2.122 1.06 2.602 1.2v.01c.14.04.268.06.398.06a1.84 1.84 0 0 0 1.102-.472c.39-.35.7-.738.93-1.148v-.01c.23-.43.15-.841-.18-1.121a13.632 13.632 0 0 0-2.15-1.54c-.51-.28-1.03-.11-1.24.17l-.45.569c-.23.28-.65.24-.65.24l-.012.01c-3.12-.8-3.95-3.959-3.95-3.959s-.04-.43.25-.65l.56-.45c.27-.22.46-.74.17-1.25a13.522 13.522 0 0 0-1.54-2.15.843.843 0 0 0-.504-.3zm4.473.89a.3.3 0 0 0 .002.6 3.78 3.78 0 0 1 2.65 1.15 3.5 3.5 0 0 1 .9 2.57.3.3 0 0 0 .3.299l.01.012a.3.3 0 0 0 .3-.301c.03-1.19-.34-2.19-1.07-2.99-.73-.8-1.75-1.25-3.05-1.34a.3.3 0 0 0-.042 0zm.49 1.619a.305.305 0 0 0-.018.611c.99.05 1.47.55 1.53 1.58a.3.3 0 0 0 .3.29h.01a.3.3 0 0 0 .29-.32c-.07-1.34-.8-2.091-2.1-2.161a.305.305 0 0 0-.012 0z"/></symbol><symbol enable-background="new 0 0 56.693 56.693" id="s-facebook" viewBox="0 0 56.693 56.693" xml:space="preserve" xmlns="http://www.w3.org/2000/svg"><path d="M40.43,21.739h-7.645v-5.014c0-1.883,1.248-2.322,2.127-2.322c0.877,0,5.395,0,5.395,0V6.125l-7.43-0.029  c-8.248,0-10.125,6.174-10.125,10.125v5.518h-4.77v8.53h4.77c0,10.947,0,24.137,0,24.137h10.033c0,0,0-13.32,0-24.137h6.77  L40.43,21.739z"/></symbol><symbol viewBox="0 0 256 256" id="s-instagram" xmlns="http://www.w3.org/2000/svg"><rect height="256" width="256"/><circle cx="128" cy="128" r="32"/><path d="M172,28H84A56,56,0,0,0,28,84v88a56,56,0,0,0,56,56h88a56,56,0,0,0,56-56V84A56,56,0,0,0,172,28ZM128,176a48,48,0,1,1,48-48A48,48,0,0,1,128,176Zm52-88a12,12,0,1,1,12-12A12,12,0,0,1,180,88Z"/></symbol><symbol id="s-linkedin" viewBox="0 0 24 24" xml:space="preserve" xmlns="http://www.w3.org/2000/svg"><g><path d="M8,19H5V9h3V19z M19,19h-3v-5.342c0-1.392-0.496-2.085-1.479-2.085c-0.779,0-1.273,0.388-1.521,1.165C13,14,13,19,13,19h-3   c0,0,0.04-9,0-10h2.368l0.183,2h0.062c0.615-1,1.598-1.678,2.946-1.678c1.025,0,1.854,0.285,2.487,1.001   C18.683,11.04,19,12.002,19,13.353V19z"/></g><g><ellipse cx="6.5" cy="6.5" rx="1.55" ry="1.5"/></g></symbol><symbol enable-background="new 0 0 56.693 56.693" id="s-twitter" viewBox="0 0 56.693 56.693" xml:space="preserve" xmlns="http://www.w3.org/2000/svg"><path d="M52.837,15.065c-1.811,0.805-3.76,1.348-5.805,1.591c2.088-1.25,3.689-3.23,4.444-5.592c-1.953,1.159-4.115,2-6.418,2.454  c-1.843-1.964-4.47-3.192-7.377-3.192c-5.581,0-10.106,4.525-10.106,10.107c0,0.791,0.089,1.562,0.262,2.303  c-8.4-0.422-15.848-4.445-20.833-10.56c-0.87,1.492-1.368,3.228-1.368,5.082c0,3.506,1.784,6.6,4.496,8.412  c-1.656-0.053-3.215-0.508-4.578-1.265c-0.001,0.042-0.001,0.085-0.001,0.128c0,4.896,3.484,8.98,8.108,9.91  c-0.848,0.23-1.741,0.354-2.663,0.354c-0.652,0-1.285-0.063-1.902-0.182c1.287,4.015,5.019,6.938,9.441,7.019  c-3.459,2.711-7.816,4.327-12.552,4.327c-0.815,0-1.62-0.048-2.411-0.142c4.474,2.869,9.786,4.541,15.493,4.541  c18.591,0,28.756-15.4,28.756-28.756c0-0.438-0.009-0.875-0.028-1.309C49.769,18.873,51.483,17.092,52.837,15.065z"/></symbol><symbol viewBox="0 0 15 15" id="subskills" xmlns="http://www.w3.org/2000/svg">
<path fill-rule="evenodd" clip-rule="evenodd" d="M9 1H1V9H9V1ZM0 0V10H10V0H0Z"/>
<path fill-rule="evenodd" clip-rule="evenodd" d="M14 6H6V14H14V6ZM5 5V15H15V5H5Z"/>
</symbol></svg>